Wayfinder_Icons_Old.ufo
<glyph name="uni2581" format="2">
  <advance width="1000"/>
  <unicode hex="2581"/>
  <outline>
    <contour>
      <point x="500" y="700" type="curve" smooth="yes"/>
      <point x="533" y="700"/>
      <point x="560" y="673"/>
      <point x="560" y="640" type="curve" smooth="yes"/>
      <point x="560" y="607"/>
      <point x="533" y="580"/>
      <point x="500" y="580" type="curve" smooth="yes"/>
      <point x="451" y="580"/>
      <point x="403" y="568"/>
      <point x="360" y="543" type="curve" smooth="yes"/>
      <point x="351" y="538"/>
      <point x="341" y="535"/>
      <point x="330" y="535" type="curve" smooth="yes"/>
      <point x="308" y="535"/>
      <point x="288" y="546"/>
      <point x="278" y="564" type="curve" smooth="yes"/>
      <point x="273" y="573"/>
      <point x="270" y="584"/>
      <point x="270" y="595" type="curve" smooth="yes"/>
      <point x="270" y="617"/>
      <point x="282" y="636"/>
      <point x="300" y="646" type="curve" smooth="yes"/>
      <point x="361" y="681"/>
      <point x="430" y="700"/>
    </contour>
  </outline>
</glyph>
<glyph name="uni2583" format="2">
  <advance width="1000"/>
  <unicode hex="2583"/>
  <outline>
    <contour>
      <point x="500" y="700" type="curve" smooth="yes"/>
      <point x="533" y="700"/>
      <point x="560" y="673"/>
      <point x="560" y="640" type="curve" smooth="yes"/>
      <point x="560" y="607"/>
      <point x="533" y="580"/>
      <point x="500" y="580" type="curve" smooth="yes"/>
      <point x="382" y="580"/>
      <point x="277" y="507"/>
      <point x="237" y="396" type="curve" smooth="yes"/>
      <point x="197" y="285"/>
      <point x="230" y="162"/>
      <point x="320" y="86" type="curve" smooth="yes"/>
      <point x="333" y="75"/>
      <point x="341" y="58"/>
      <point x="341" y="40" type="curve" smooth="yes"/>
      <point x="341" y="25"/>
      <point x="336" y="11"/>
      <point x="327" y="1" type="curve" smooth="yes"/>
      <point x="316" y="-12"/>
      <point x="299" y="-20"/>
      <point x="281" y="-20" type="curve" smooth="yes"/>
      <point x="266" y="-20"/>
      <point x="253" y="-15"/>
      <point x="243" y="-6" type="curve" smooth="yes"/>
      <point x="114" y="102"/>
      <point x="67" y="279"/>
      <point x="124" y="437" type="curve" smooth="yes"/>
      <point x="181" y="595"/>
      <point x="332" y="700"/>
    </contour>
  </outline>
</glyph>
<glyph name="uni2585" format="2">
  <advance width="1000"/>
  <unicode hex="2585"/>
  <outline>
    <contour>
      <point x="500" y="700" type="curve" smooth="yes"/>
      <point x="533" y="700"/>
      <point x="560" y="673"/>
      <point x="560" y="640" type="curve" smooth="yes"/>
      <point x="560" y="607"/>
      <point x="533" y="580"/>
      <point x="500" y="580" type="curve" smooth="yes"/>
      <point x="357" y="580"/>
      <point x="239" y="474"/>
      <point x="222" y="332" type="curve" smooth="yes"/>
      <point x="205" y="190"/>
      <point x="296" y="61"/>
      <point x="435" y="28" type="curve" smooth="yes"/>
      <point x="574" y="-5"/>
      <point x="714" y="70"/>
      <point x="763" y="204" type="curve" smooth="yes"/>
      <point x="771" y="227"/>
      <point x="793" y="244"/>
      <point x="819" y="244" type="curve" smooth="yes"/>
      <point x="826" y="244"/>
      <point x="834" y="242"/>
      <point x="840" y="240" type="curve" smooth="yes"/>
      <point x="863" y="232"/>
      <point x="880" y="210"/>
      <point x="880" y="184" type="curve" smooth="yes"/>
      <point x="880" y="177"/>
      <point x="878" y="169"/>
      <point x="876" y="163" type="curve" smooth="yes"/>
      <point x="807" y="-27"/>
      <point x="605" y="-136"/>
      <point x="408" y="-89" type="curve" smooth="yes"/>
      <point x="211" y="-42"/>
      <point x="79" y="145"/>
      <point x="103" y="346" type="curve" smooth="yes"/>
      <point x="127" y="547"/>
      <point x="298" y="700"/>
    </contour>
  </outline>
</glyph>
<glyph name="uni2587" format="2">
  <advance width="1000"/>
  <unicode hex="2587"/>
  <outline>
    <contour>
      <point x="500" y="700" type="curve" smooth="yes"/>
      <point x="533" y="700"/>
      <point x="560" y="673"/>
      <point x="560" y="640" type="curve" smooth="yes"/>
      <point x="560" y="607"/>
      <point x="533" y="580"/>
      <point x="500" y="580" type="curve" smooth="yes"/>
      <point x="359" y="580"/>
      <point x="240" y="477"/>
      <point x="222" y="337" type="curve" smooth="yes"/>
      <point x="204" y="197"/>
      <point x="292" y="65"/>
      <point x="428" y="29" type="curve" smooth="yes"/>
      <point x="564" y="-7"/>
      <point x="705" y="63"/>
      <point x="759" y="193" type="curve" smooth="yes"/>
      <point x="813" y="323"/>
      <point x="762" y="473"/>
      <point x="640" y="543" type="curve" smooth="yes"/>
      <point x="622" y="553"/>
      <point x="610" y="573"/>
      <point x="610" y="595" type="curve" smooth="yes"/>
      <point x="610" y="606"/>
      <point x="613" y="615"/>
      <point x="618" y="624" type="curve" smooth="yes"/>
      <point x="628" y="642"/>
      <point x="648" y="654"/>
      <point x="670" y="654" type="curve" smooth="yes"/>
      <point x="681" y="654"/>
      <point x="691" y="651"/>
      <point x="700" y="646" type="curve" smooth="yes"/>
      <point x="873" y="546"/>
      <point x="947" y="332"/>
      <point x="870" y="147" type="curve" smooth="yes"/>
      <point x="793" y="-38"/>
      <point x="589" y="-138"/>
      <point x="396" y="-86" type="curve" smooth="yes"/>
      <point x="203" y="-34"/>
      <point x="78" y="153"/>
      <point x="104" y="352" type="curve" smooth="yes"/>
      <point x="130" y="551"/>
      <point x="300" y="700"/>
    </contour>
  </outline>
</glyph>
<glyph name="block" format="2">
  <advance width="1000"/>
  <unicode hex="2588"/>
  <outline>
    <contour>
      <point x="500" y="700" type="curve" smooth="yes"/>
      <point x="720" y="700"/>
      <point x="900" y="520"/>
      <point x="900" y="300" type="curve" smooth="yes"/>
      <point x="900" y="80"/>
      <point x="720" y="-100"/>
      <point x="500" y="-100" type="curve" smooth="yes"/>
      <point x="280" y="-100"/>
      <point x="100" y="80"/>
      <point x="100" y="300" type="curve" smooth="yes"/>
      <point x="100" y="520"/>
      <point x="280" y="700"/>
    </contour>
    <contour>
      <point x="500" y="580" type="curve" smooth="yes"/>
      <point x="345" y="580"/>
      <point x="220" y="455"/>
      <point x="220" y="300" type="curve" smooth="yes"/>
      <point x="220" y="145"/>
      <point x="345" y="20"/>
      <point x="500" y="20" type="curve" smooth="yes"/>
      <point x="655" y="20"/>
      <point x="780" y="145"/>
      <point x="780" y="300" type="curve" smooth="yes"/>
      <point x="780" y="455"/>
      <point x="655" y="580"/>
    </contour>
  </outline>
</glyph>
<glyph name="uni25C9" format="2">
  <advance width="1000"/>
  <unicode hex="25C9"/>
  <outline>
    <contour>
      <point x="500" y="700" type="curve" smooth="yes"/>
      <point x="721" y="700"/>
      <point x="900" y="521"/>
      <point x="900" y="300" type="curve" smooth="yes"/>
      <point x="900" y="79"/>
      <point x="721" y="-100"/>
      <point x="500" y="-100" type="curve" smooth="yes"/>
      <point x="279" y="-100"/>
      <point x="100" y="79"/>
      <point x="100" y="300" type="curve" smooth="yes"/>
      <point x="100" y="521"/>
      <point x="279" y="700"/>
    </contour>
    <contour>
      <point x="650" y="550" type="curve" smooth="yes"/>
      <point x="595" y="550"/>
      <point x="550" y="505"/>
      <point x="550" y="450" type="curve" smooth="yes"/>
      <point x="550" y="395"/>
      <point x="595" y="350"/>
      <point x="650" y="350" type="curve" smooth="yes"/>
      <point x="705" y="350"/>
      <point x="750" y="395"/>
      <point x="750" y="450" type="curve" smooth="yes"/>
      <point x="750" y="505"/>
      <point x="705" y="550"/>
    </contour>
    <contour>
      <point x="400" y="300" type="curve" smooth="yes"/>
      <point x="345" y="300"/>
      <point x="300" y="255"/>
      <point x="300" y="200" type="curve" smooth="yes"/>
      <point x="300" y="145"/>
      <point x="345" y="100"/>
      <point x="400" y="100" type="curve" smooth="yes"/>
      <point x="455" y="100"/>
      <point x="500" y="145"/>
      <point x="500" y="200" type="curve" smooth="yes"/>
      <point x="500" y="255"/>
      <point x="455" y="300"/>
    </contour>
  </outline>
</glyph>
<glyph name="circle" format="2">
  <advance width="1000"/>
  <unicode hex="25CB"/>
  <outline>
    <contour>
      <point x="500" y="600" type="curve" smooth="yes"/>
      <point x="665" y="600"/>
      <point x="800" y="465"/>
      <point x="800" y="300" type="curve" smooth="yes"/>
      <point x="800" y="135"/>
      <point x="665" y="0"/>
      <point x="500" y="0" type="curve" smooth="yes"/>
      <point x="335" y="0"/>
      <point x="200" y="135"/>
      <point x="200" y="300" type="curve" smooth="yes"/>
      <point x="200" y="465"/>
      <point x="335" y="600"/>
    </contour>
    <contour>
      <point x="500" y="520" type="curve" smooth="yes"/>
      <point x="378" y="520"/>
      <point x="280" y="422"/>
      <point x="280" y="300" type="curve" smooth="yes"/>
      <point x="280" y="178"/>
      <point x="378" y="80"/>
      <point x="500" y="80" type="curve" smooth="yes"/>
      <point x="622" y="80"/>
      <point x="720" y="178"/>
      <point x="720" y="300" type="curve" smooth="yes"/>
      <point x="720" y="422"/>
      <point x="622" y="520"/>
    </contour>
  </outline>
</glyph>
<glyph name="H18533" format="2">
  <advance width="1000"/>
  <unicode hex="25CF"/>
  <outline>
    <contour>
      <point x="800" y="300" type="curve" smooth="yes"/>
      <point x="800" y="134"/>
      <point x="666" y="0"/>
      <point x="500" y="0" type="curve" smooth="yes"/>
      <point x="334" y="0"/>
      <point x="200" y="134"/>
      <point x="200" y="300" type="curve" smooth="yes"/>
      <point x="200" y="466"/>
      <point x="334" y="600"/>
      <point x="500" y="600" type="curve" smooth="yes"/>
      <point x="666" y="600"/>
      <point x="800" y="466"/>
    </contour>
  </outline>
</glyph>
<glyph name="invbullet" format="2">
  <advance width="1000"/>
  <unicode hex="25D8"/>
  <outline>
    <contour>
      <point x="404" y="703" type="curve" smooth="yes"/>
      <point x="417" y="702"/>
      <point x="429" y="694"/>
      <point x="435" y="683" type="curve" smooth="yes"/>
      <point x="446" y="664"/>
      <point x="439" y="640"/>
      <point x="420" y="629" type="curve" smooth="yes"/>
      <point x="357" y="593"/>
      <point x="327" y="519"/>
      <point x="346" y="449" type="curve" smooth="yes"/>
      <point x="347" y="445"/>
      <point x="348" y="441"/>
      <point x="349" y="438" type="curve"/>
      <point x="395" y="465"/>
      <point x="447" y="480"/>
      <point x="500" y="480" type="curve" smooth="yes"/>
      <point x="553" y="480"/>
      <point x="605" y="466"/>
      <point x="651" y="439" type="curve"/>
      <point x="652" y="442"/>
      <point x="653" y="446"/>
      <point x="654" y="449" type="curve" smooth="yes"/>
      <point x="673" y="519"/>
      <point x="643" y="593"/>
      <point x="580" y="629" type="curve" smooth="yes"/>
      <point x="561" y="640"/>
      <point x="554" y="664"/>
      <point x="565" y="683" type="curve" smooth="yes"/>
      <point x="576" y="702"/>
      <point x="601" y="709"/>
      <point x="620" y="698" type="curve" smooth="yes"/>
      <point x="714" y="644"/>
      <point x="760" y="533"/>
      <point x="732" y="428" type="curve" smooth="yes"/>
      <point x="728" y="414"/>
      <point x="723" y="400"/>
      <point x="717" y="387" type="curve"/>
      <point x="770" y="331"/>
      <point x="800" y="257"/>
      <point x="800" y="180" type="curve" smooth="yes"/>
      <point x="800" y="14"/>
      <point x="666" y="-120"/>
      <point x="500" y="-120" type="curve" smooth="yes"/>
      <point x="334" y="-120"/>
      <point x="200" y="14"/>
      <point x="200" y="180" type="curve" smooth="yes"/>
      <point x="200" y="257"/>
      <point x="230" y="331"/>
      <point x="283" y="387" type="curve"/>
      <point x="277" y="400"/>
      <point x="272" y="414"/>
      <point x="268" y="428" type="curve" smooth="yes"/>
      <point x="240" y="533"/>
      <point x="286" y="644"/>
      <point x="380" y="698" type="curve" smooth="yes"/>
      <point x="387" y="702"/>
      <point x="396" y="704"/>
    </contour>
    <contour>
      <point x="1300" y="695" type="move"/>
      <point x="1500" y="495" type="line"/>
      <point x="1700" y="695" type="line"/>
    </contour>
  </outline>
</glyph>
<glyph name="invcircle" format="2">
  <advance width="1000"/>
  <unicode hex="25D9"/>
  <outline>
    <contour>
      <point x="500" y="730" type="curve" smooth="yes"/>
      <point x="632" y="730"/>
      <point x="740" y="622"/>
      <point x="740" y="490" type="curve" smooth="yes"/>
      <point x="740" y="453"/>
      <point x="732" y="418"/>
      <point x="717" y="387" type="curve" smooth="yes"/>
      <point x="770" y="331"/>
      <point x="800" y="257"/>
      <point x="800" y="180" type="curve" smooth="yes"/>
      <point x="800" y="14"/>
      <point x="666" y="-120"/>
      <point x="500" y="-120" type="curve" smooth="yes"/>
      <point x="334" y="-120"/>
      <point x="200" y="14"/>
      <point x="200" y="180" type="curve" smooth="yes"/>
      <point x="200" y="257"/>
      <point x="231" y="331"/>
      <point x="284" y="387" type="curve" smooth="yes"/>
      <point x="269" y="418"/>
      <point x="260" y="453"/>
      <point x="260" y="490" type="curve" smooth="yes"/>
      <point x="260" y="622"/>
      <point x="368" y="730"/>
    </contour>
    <contour>
      <point x="500" y="650" type="curve" smooth="yes"/>
      <point x="411" y="650"/>
      <point x="340" y="579"/>
      <point x="340" y="490" type="curve" smooth="yes"/>
      <point x="340" y="472"/>
      <point x="344" y="454"/>
      <point x="349" y="438" type="curve"/>
      <point x="395" y="465"/>
      <point x="447" y="480"/>
      <point x="500" y="480" type="curve" smooth="yes"/>
      <point x="553" y="480"/>
      <point x="606" y="466"/>
      <point x="652" y="439" type="curve"/>
      <point x="657" y="455"/>
      <point x="660" y="472"/>
      <point x="660" y="490" type="curve" smooth="yes"/>
      <point x="660" y="579"/>
      <point x="589" y="650"/>
    </contour>
  </outline>
</glyph>
<glyph name="uni25E9" format="2">
  <advance width="1000"/>
  <unicode hex="25E9"/>
  <outline>
    <contour>
      <point x="340" y="700" type="curve" smooth="yes"/>
      <point x="459" y="700"/>
      <point x="558" y="613"/>
      <point x="577" y="499" type="curve" smooth="yes"/>
      <point x="585" y="500"/>
      <point x="592" y="500"/>
      <point x="600" y="500" type="curve" smooth="yes"/>
      <point x="765" y="500"/>
      <point x="900" y="365"/>
      <point x="900" y="200" type="curve" smooth="yes"/>
      <point x="900" y="35"/>
      <point x="765" y="-100"/>
      <point x="600" y="-100" type="curve" smooth="yes"/>
      <point x="435" y="-100"/>
      <point x="300" y="35"/>
      <point x="300" y="200" type="curve" smooth="yes"/>
      <point x="300" y="208"/>
      <point x="300" y="215"/>
      <point x="301" y="223" type="curve" smooth="yes"/>
      <point x="187" y="242"/>
      <point x="100" y="341"/>
      <point x="100" y="460" type="curve" smooth="yes"/>
      <point x="100" y="592"/>
      <point x="208" y="700"/>
    </contour>
    <contour>
      <point x="600" y="420" type="curve" smooth="yes"/>
      <point x="478" y="420"/>
      <point x="380" y="322"/>
      <point x="380" y="200" type="curve" smooth="yes"/>
      <point x="380" y="78"/>
      <point x="478" y="-20"/>
      <point x="600" y="-20" type="curve" smooth="yes"/>
      <point x="722" y="-20"/>
      <point x="820" y="78"/>
      <point x="820" y="200" type="curve" smooth="yes"/>
      <point x="820" y="322"/>
      <point x="722" y="420"/>
    </contour>
    <contour>
      <point x="1437" y="715" type="curve" smooth="yes"/>
      <point x="1562" y="715"/>
      <point x="1666" y="624"/>
      <point x="1686" y="504" type="curve" smooth="yes"/>
      <point x="1694" y="505"/>
      <point x="1702" y="505"/>
      <point x="1710" y="505" type="curve" smooth="yes"/>
      <point x="1883" y="505"/>
      <point x="2025" y="363"/>
      <point x="2025" y="190" type="curve" smooth="yes"/>
      <point x="2025" y="17"/>
      <point x="1883" y="-125"/>
      <point x="1710" y="-125" type="curve" smooth="yes"/>
      <point x="1537" y="-125"/>
      <point x="1395" y="17"/>
      <point x="1395" y="190" type="curve" smooth="yes"/>
      <point x="1395" y="198"/>
      <point x="1395" y="206"/>
      <point x="1396" y="214" type="curve" smooth="yes"/>
      <point x="1276" y="234"/>
      <point x="1185" y="338"/>
      <point x="1185" y="463" type="curve" smooth="yes"/>
      <point x="1185" y="602"/>
      <point x="1298" y="715"/>
    </contour>
    <contour>
      <point x="1710" y="421" type="curve" smooth="yes"/>
      <point x="1582" y="421"/>
      <point x="1479" y="318"/>
      <point x="1479" y="190" type="curve" smooth="yes"/>
      <point x="1479" y="62"/>
      <point x="1582" y="-41"/>
      <point x="1710" y="-41" type="curve" smooth="yes"/>
      <point x="1838" y="-41"/>
      <point x="1941" y="62"/>
      <point x="1941" y="190" type="curve" smooth="yes"/>
      <point x="1941" y="318"/>
      <point x="1838" y="421"/>
    </contour>
  </outline>
</glyph>
<glyph name="uni25EA" format="2">
  <advance width="1000"/>
  <unicode hex="25EA"/>
  <outline>
    <contour>
      <point x="340" y="700" type="curve" smooth="yes"/>
      <point x="459" y="700"/>
      <point x="559" y="612"/>
      <point x="577" y="498" type="curve" smooth="yes"/>
      <point x="585" y="499"/>
      <point x="592" y="500"/>
      <point x="600" y="500" type="curve" smooth="yes"/>
      <point x="766" y="500"/>
      <point x="900" y="366"/>
      <point x="900" y="200" type="curve" smooth="yes"/>
      <point x="900" y="34"/>
      <point x="766" y="-100"/>
      <point x="600" y="-100" type="curve" smooth="yes"/>
      <point x="434" y="-100"/>
      <point x="300" y="34"/>
      <point x="300" y="200" type="curve" smooth="yes"/>
      <point x="300" y="208"/>
      <point x="301" y="215"/>
      <point x="302" y="223" type="curve" smooth="yes"/>
      <point x="188" y="241"/>
      <point x="100" y="341"/>
      <point x="100" y="460" type="curve" smooth="yes"/>
      <point x="100" y="592"/>
      <point x="208" y="700"/>
    </contour>
    <contour>
      <point x="340" y="620" type="curve" smooth="yes"/>
      <point x="251" y="620"/>
      <point x="180" y="549"/>
      <point x="180" y="460" type="curve" smooth="yes"/>
      <point x="180" y="379"/>
      <point x="240" y="311"/>
      <point x="318" y="301" type="curve" smooth="yes"/>
      <point x="348" y="385"/>
      <point x="415" y="452"/>
      <point x="499" y="482" type="curve" smooth="yes"/>
      <point x="489" y="560"/>
      <point x="421" y="620"/>
    </contour>
  </outline>
</glyph>
<glyph name="uni260E" format="2">
  <advance width="1000"/>
  <unicode hex="260E"/>
  <outline>
    <contour>
      <point x="500" y="650" type="curve" smooth="yes"/>
      <point x="693" y="650"/>
      <point x="850" y="493"/>
      <point x="850" y="300" type="curve" smooth="yes"/>
      <point x="850" y="262"/>
      <point x="843" y="225"/>
      <point x="831" y="190" type="curve"/>
      <point x="169" y="190" type="line"/>
      <point x="157" y="225"/>
      <point x="150" y="262"/>
      <point x="150" y="300" type="curve" smooth="yes"/>
      <point x="150" y="493"/>
      <point x="307" y="650"/>
    </contour>
    <contour>
      <point x="500" y="530" type="curve" smooth="yes"/>
      <point x="456" y="530"/>
      <point x="420" y="494"/>
      <point x="420" y="450" type="curve" smooth="yes"/>
      <point x="420" y="406"/>
      <point x="456" y="370"/>
      <point x="500" y="370" type="curve" smooth="yes"/>
      <point x="544" y="370"/>
      <point x="580" y="406"/>
      <point x="580" y="450" type="curve" smooth="yes"/>
      <point x="580" y="494"/>
      <point x="544" y="530"/>
    </contour>
    <contour>
      <point x="206" y="110" type="curve"/>
      <point x="794" y="110" type="line"/>
      <point x="732" y="14"/>
      <point x="623" y="-50"/>
      <point x="500" y="-50" type="curve" smooth="yes"/>
      <point x="377" y="-50"/>
      <point x="268" y="14"/>
    </contour>
  </outline>
</glyph>
<glyph name="uni260F" format="2">
  <advance width="1000"/>
  <unicode hex="260F"/>
  <outline>
    <contour>
      <point x="500" y="650" type="curve" smooth="yes"/>
      <point x="693" y="650"/>
      <point x="850" y="493"/>
      <point x="850" y="300" type="curve" smooth="yes"/>
      <point x="850" y="262"/>
      <point x="843" y="225"/>
      <point x="831" y="190" type="curve"/>
      <point x="169" y="190" type="line"/>
      <point x="157" y="225"/>
      <point x="150" y="262"/>
      <point x="150" y="300" type="curve" smooth="yes"/>
      <point x="150" y="493"/>
      <point x="307" y="650"/>
    </contour>
    <contour>
      <point x="400" y="550" type="curve" smooth="yes"/>
      <point x="393" y="550"/>
      <point x="387" y="547"/>
      <point x="382" y="543" type="curve" smooth="yes"/>
      <point x="377" y="538"/>
      <point x="375" y="532"/>
      <point x="375" y="525" type="curve" smooth="yes"/>
      <point x="375" y="518"/>
      <point x="377" y="512"/>
      <point x="382" y="507" type="curve" smooth="yes"/>
      <point x="464" y="425" type="line"/>
      <point x="382" y="343" type="line" smooth="yes"/>
      <point x="377" y="338"/>
      <point x="375" y="332"/>
      <point x="375" y="325" type="curve" smooth="yes"/>
      <point x="375" y="318"/>
      <point x="377" y="312"/>
      <point x="382" y="307" type="curve" smooth="yes"/>
      <point x="387" y="302"/>
      <point x="393" y="300"/>
      <point x="400" y="300" type="curve" smooth="yes"/>
      <point x="407" y="300"/>
      <point x="413" y="302"/>
      <point x="418" y="307" type="curve" smooth="yes"/>
      <point x="500" y="389" type="line"/>
      <point x="582" y="307" type="line" smooth="yes"/>
      <point x="587" y="302"/>
      <point x="593" y="300"/>
      <point x="600" y="300" type="curve" smooth="yes"/>
      <point x="607" y="300"/>
      <point x="613" y="302"/>
      <point x="618" y="307" type="curve" smooth="yes"/>
      <point x="623" y="312"/>
      <point x="625" y="318"/>
      <point x="625" y="325" type="curve" smooth="yes"/>
      <point x="625" y="332"/>
      <point x="623" y="338"/>
      <point x="618" y="343" type="curve" smooth="yes"/>
      <point x="536" y="425" type="line"/>
      <point x="618" y="507" type="line" smooth="yes"/>
      <point x="623" y="512"/>
      <point x="625" y="518"/>
      <point x="625" y="525" type="curve" smooth="yes"/>
      <point x="625" y="532"/>
      <point x="623" y="538"/>
      <point x="618" y="543" type="curve" smooth="yes"/>
      <point x="613" y="547"/>
      <point x="607" y="550"/>
      <point x="600" y="550" type="curve" smooth="yes"/>
      <point x="593" y="550"/>
      <point x="587" y="547"/>
      <point x="582" y="543" type="curve" smooth="yes"/>
      <point x="500" y="461" type="line"/>
      <point x="418" y="543" type="line" smooth="yes"/>
      <point x="413" y="547"/>
      <point x="407" y="550"/>
    </contour>
    <contour>
      <point x="206" y="110" type="curve"/>
      <point x="794" y="110" type="line"/>
      <point x="732" y="14"/>
      <point x="623" y="-50"/>
      <point x="500" y="-50" type="curve" smooth="yes"/>
      <point x="377" y="-50"/>
      <point x="268" y="14"/>
    </contour>
  </outline>
</glyph>
<glyph name="uni2648" format="2">
  <advance width="1000"/>
  <unicode hex="2648"/>
  <outline>
    <contour>
      <point x="500" y="675" type="curve" smooth="yes"/>
      <point x="610" y="675"/>
      <point x="700" y="585"/>
      <point x="700" y="475" type="curve" smooth="yes"/>
      <point x="700" y="418"/>
      <point x="676" y="365"/>
      <point x="637" y="329" type="curve" smooth="yes"/>
      <point x="731" y="192" type="line" smooth="yes"/>
      <point x="745" y="197"/>
      <point x="760" y="200"/>
      <point x="775" y="200" type="curve" smooth="yes"/>
      <point x="844" y="200"/>
      <point x="900" y="144"/>
      <point x="900" y="75" type="curve" smooth="yes"/>
      <point x="900" y="6"/>
      <point x="844" y="-50"/>
      <point x="775" y="-50" type="curve" smooth="yes"/>
      <point x="706" y="-50"/>
      <point x="650" y="6"/>
      <point x="650" y="75" type="curve" smooth="yes"/>
      <point x="650" y="107"/>
      <point x="662" y="136"/>
      <point x="682" y="158" type="curve" smooth="yes"/>
      <point x="587" y="295" type="line"/>
      <point x="561" y="282"/>
      <point x="531" y="275"/>
      <point x="500" y="275" type="curve" smooth="yes"/>
      <point x="469" y="275"/>
      <point x="439" y="282"/>
      <point x="413" y="295" type="curve" smooth="yes"/>
      <point x="318" y="158" type="line" smooth="yes"/>
      <point x="338" y="136"/>
      <point x="350" y="107"/>
      <point x="350" y="75" type="curve" smooth="yes"/>
      <point x="350" y="6"/>
      <point x="294" y="-50"/>
      <point x="225" y="-50" type="curve" smooth="yes"/>
      <point x="156" y="-50"/>
      <point x="100" y="6"/>
      <point x="100" y="75" type="curve" smooth="yes"/>
      <point x="100" y="144"/>
      <point x="156" y="200"/>
      <point x="225" y="200" type="curve" smooth="yes"/>
      <point x="240" y="200"/>
      <point x="255" y="197"/>
      <point x="269" y="192" type="curve" smooth="yes"/>
      <point x="363" y="329" type="line" smooth="yes"/>
      <point x="324" y="365"/>
      <point x="300" y="418"/>
      <point x="300" y="475" type="curve" smooth="yes"/>
      <point x="300" y="585"/>
      <point x="390" y="675"/>
    </contour>
  </outline>
</glyph>
<glyph name="uni2668" format="2">
  <advance width="1000"/>
  <unicode hex="2668"/>
  <outline>
    <contour>
      <point x="490" y="100" type="curve" smooth="yes"/>
      <point x="457" y="100"/>
      <point x="430" y="73"/>
      <point x="430" y="40" type="curve" smooth="yes"/>
      <point x="430" y="7"/>
      <point x="457" y="-20"/>
      <point x="490" y="-20" type="curve" smooth="yes"/>
      <point x="523" y="-20"/>
      <point x="550" y="7"/>
      <point x="550" y="40" type="curve" smooth="yes"/>
      <point x="550" y="73"/>
      <point x="523" y="100"/>
    </contour>
    <contour>
      <point x="307" y="140" type="curve" smooth="yes"/>
      <point x="285" y="140"/>
      <point x="267" y="122"/>
      <point x="267" y="100" type="curve" smooth="yes"/>
      <point x="267" y="78"/>
      <point x="285" y="60"/>
      <point x="307" y="60" type="curve" smooth="yes"/>
      <point x="329" y="60"/>
      <point x="347" y="78"/>
      <point x="347" y="100" type="curve" smooth="yes"/>
      <point x="347" y="122"/>
      <point x="329" y="140"/>
    </contour>
    <contour>
      <point x="681" y="180" type="curve" smooth="yes"/>
      <point x="642" y="180"/>
      <point x="611" y="149"/>
      <point x="611" y="110" type="curve" smooth="yes"/>
      <point x="611" y="71"/>
      <point x="642" y="40"/>
      <point x="681" y="40" type="curve" smooth="yes"/>
      <point x="720" y="40"/>
      <point x="751" y="71"/>
      <point x="751" y="110" type="curve" smooth="yes"/>
      <point x="751" y="149"/>
      <point x="720" y="180"/>
    </contour>
    <contour>
      <point x="588" y="278" type="curve" smooth="yes"/>
      <point x="587" y="278" type="line" smooth="yes"/>
      <point x="565" y="278"/>
      <point x="547" y="260"/>
      <point x="547" y="238" type="curve" smooth="yes"/>
      <point x="547" y="216"/>
      <point x="565" y="198"/>
      <point x="587" y="198" type="curve" smooth="yes"/>
      <point x="588" y="198" type="line" smooth="yes"/>
      <point x="610" y="198"/>
      <point x="628" y="216"/>
      <point x="628" y="238" type="curve" smooth="yes"/>
      <point x="628" y="260"/>
      <point x="610" y="278"/>
    </contour>
    <contour>
      <point x="804" y="288" type="curve" smooth="yes"/>
      <point x="782" y="288"/>
      <point x="764" y="270"/>
      <point x="764" y="248" type="curve" smooth="yes"/>
      <point x="764" y="247" type="line" smooth="yes"/>
      <point x="764" y="225"/>
      <point x="782" y="207"/>
      <point x="804" y="207" type="curve" smooth="yes"/>
      <point x="826" y="207"/>
      <point x="844" y="225"/>
      <point x="844" y="247" type="curve" smooth="yes"/>
      <point x="844" y="248" type="line" smooth="yes"/>
      <point x="844" y="270"/>
      <point x="826" y="288"/>
    </contour>
    <contour>
      <point x="420" y="300" type="curve" smooth="yes"/>
      <point x="376" y="300"/>
      <point x="340" y="264"/>
      <point x="340" y="220" type="curve" smooth="yes"/>
      <point x="340" y="176"/>
      <point x="376" y="140"/>
      <point x="420" y="140" type="curve" smooth="yes"/>
      <point x="464" y="140"/>
      <point x="500" y="176"/>
      <point x="500" y="220" type="curve" smooth="yes"/>
      <point x="500" y="264"/>
      <point x="464" y="300"/>
    </contour>
    <contour>
      <point x="236" y="302" type="curve" smooth="yes"/>
      <point x="208" y="302"/>
      <point x="186" y="280"/>
      <point x="186" y="252" type="curve" smooth="yes"/>
      <point x="186" y="224"/>
      <point x="208" y="202"/>
      <point x="236" y="202" type="curve" smooth="yes"/>
      <point x="264" y="202"/>
      <point x="286" y="224"/>
      <point x="286" y="252" type="curve" smooth="yes"/>
      <point x="286" y="280"/>
      <point x="264" y="302"/>
    </contour>
    <contour>
      <point x="366" y="408" type="curve" smooth="yes"/>
      <point x="349" y="408"/>
      <point x="336" y="395"/>
      <point x="336" y="378" type="curve" smooth="yes"/>
      <point x="336" y="361"/>
      <point x="349" y="348"/>
      <point x="366" y="348" type="curve" smooth="yes"/>
      <point x="383" y="348"/>
      <point x="396" y="361"/>
      <point x="396" y="378" type="curve" smooth="yes"/>
      <point x="396" y="395"/>
      <point x="383" y="408"/>
    </contour>
    <contour>
      <point x="697" y="430" type="curve" smooth="yes"/>
      <point x="658" y="430"/>
      <point x="627" y="399"/>
      <point x="627" y="360" type="curve" smooth="yes"/>
      <point x="627" y="321"/>
      <point x="658" y="290"/>
      <point x="697" y="290" type="curve" smooth="yes"/>
      <point x="736" y="290"/>
      <point x="767" y="321"/>
      <point x="767" y="360" type="curve" smooth="yes"/>
      <point x="767" y="399"/>
      <point x="736" y="430"/>
    </contour>
    <contour>
      <point x="245" y="442" type="curve" smooth="yes"/>
      <point x="223" y="442"/>
      <point x="205" y="424"/>
      <point x="205" y="402" type="curve" smooth="yes"/>
      <point x="205" y="380"/>
      <point x="223" y="362"/>
      <point x="245" y="362" type="curve" smooth="yes"/>
      <point x="267" y="362"/>
      <point x="285" y="380"/>
      <point x="285" y="402" type="curve" smooth="yes"/>
      <point x="285" y="424"/>
      <point x="267" y="442"/>
    </contour>
    <contour>
      <point x="506" y="450" type="curve" smooth="yes"/>
      <point x="473" y="450"/>
      <point x="446" y="423"/>
      <point x="446" y="390" type="curve" smooth="yes"/>
      <point x="446" y="357"/>
      <point x="473" y="330"/>
      <point x="506" y="330" type="curve" smooth="yes"/>
      <point x="539" y="330"/>
      <point x="566" y="357"/>
      <point x="566" y="390" type="curve" smooth="yes"/>
      <point x="566" y="423"/>
      <point x="539" y="450"/>
    </contour>
    <contour>
      <point x="500" y="700" type="curve" smooth="yes"/>
      <point x="721" y="700"/>
      <point x="900" y="521"/>
      <point x="900" y="300" type="curve" smooth="yes"/>
      <point x="900" y="79"/>
      <point x="721" y="-100"/>
      <point x="500" y="-100" type="curve" smooth="yes"/>
      <point x="279" y="-100"/>
      <point x="100" y="79"/>
      <point x="100" y="300" type="curve" smooth="yes"/>
      <point x="100" y="521"/>
      <point x="279" y="700"/>
    </contour>
  </outline>
</glyph>
<glyph name="uni267B" format="2">
  <advance width="1000"/>
  <unicode hex="267B"/>
  <outline>
    <contour>
      <point x="404" y="673" type="curve" smooth="yes"/>
      <point x="417" y="672"/>
      <point x="429" y="664"/>
      <point x="435" y="653" type="curve" smooth="yes"/>
      <point x="438" y="647"/>
      <point x="440" y="640"/>
      <point x="440" y="633" type="curve" smooth="yes"/>
      <point x="440" y="618"/>
      <point x="432" y="606"/>
      <point x="420" y="599" type="curve" smooth="yes"/>
      <point x="368" y="569"/>
      <point x="338" y="512"/>
      <point x="340" y="454" type="curve"/>
      <point x="386" y="483"/>
      <point x="441" y="500"/>
      <point x="500" y="500" type="curve" smooth="yes"/>
      <point x="559" y="500"/>
      <point x="614" y="483"/>
      <point x="660" y="454" type="curve"/>
      <point x="662" y="512"/>
      <point x="632" y="569"/>
      <point x="580" y="599" type="curve" smooth="yes"/>
      <point x="568" y="606"/>
      <point x="560" y="618"/>
      <point x="560" y="633" type="curve" smooth="yes"/>
      <point x="560" y="640"/>
      <point x="562" y="647"/>
      <point x="565" y="653" type="curve" smooth="yes"/>
      <point x="572" y="665"/>
      <point x="585" y="673"/>
      <point x="600" y="673" type="curve" smooth="yes"/>
      <point x="607" y="673"/>
      <point x="614" y="671"/>
      <point x="620" y="668" type="curve" smooth="yes"/>
      <point x="714" y="614"/>
      <point x="760" y="503"/>
      <point x="732" y="398" type="curve" smooth="yes"/>
      <point x="732" y="396"/>
      <point x="731" y="394"/>
      <point x="730" y="392" type="curve" smooth="yes"/>
      <point x="773" y="340"/>
      <point x="800" y="273"/>
      <point x="800" y="200" type="curve" smooth="yes"/>
      <point x="800" y="34"/>
      <point x="666" y="-100"/>
      <point x="500" y="-100" type="curve" smooth="yes"/>
      <point x="334" y="-100"/>
      <point x="200" y="34"/>
      <point x="200" y="200" type="curve" smooth="yes"/>
      <point x="200" y="273"/>
      <point x="227" y="340"/>
      <point x="270" y="392" type="curve" smooth="yes"/>
      <point x="269" y="394"/>
      <point x="268" y="396"/>
      <point x="268" y="398" type="curve" smooth="yes"/>
      <point x="240" y="503"/>
      <point x="286" y="614"/>
      <point x="380" y="668" type="curve" smooth="yes"/>
      <point x="386" y="671"/>
      <point x="393" y="673"/>
      <point x="400" y="673" type="curve" smooth="yes"/>
      <point x="401" y="673"/>
      <point x="403" y="673"/>
    </contour>
  </outline>
</glyph>
<glyph name="uni2680" format="2">
  <advance width="1000"/>
  <unicode hex="2680"/>
  <outline>
    <contour>
      <point x="500" y="760" type="curve" smooth="yes"/>
      <point x="754" y="760"/>
      <point x="960" y="554"/>
      <point x="960" y="300" type="curve" smooth="yes"/>
      <point x="960" y="46"/>
      <point x="754" y="-160"/>
      <point x="500" y="-160" type="curve" smooth="yes"/>
      <point x="246" y="-160"/>
      <point x="40" y="46"/>
      <point x="40" y="300" type="curve" smooth="yes"/>
      <point x="40" y="554"/>
      <point x="246" y="760"/>
    </contour>
    <contour>
      <point x="500" y="691" type="curve" smooth="yes"/>
      <point x="284" y="691"/>
      <point x="109" y="516"/>
      <point x="109" y="300" type="curve" smooth="yes"/>
      <point x="109" y="84"/>
      <point x="284" y="-91"/>
      <point x="500" y="-91" type="curve" smooth="yes"/>
      <point x="716" y="-91"/>
      <point x="891" y="84"/>
      <point x="891" y="300" type="curve" smooth="yes"/>
      <point x="891" y="516"/>
      <point x="716" y="691"/>
    </contour>
    <contour>
      <point x="500" y="622" type="curve" smooth="yes"/>
      <point x="677" y="622"/>
      <point x="822" y="477"/>
      <point x="822" y="300" type="curve" smooth="yes"/>
      <point x="822" y="123"/>
      <point x="677" y="-22"/>
      <point x="500" y="-22" type="curve" smooth="yes"/>
      <point x="323" y="-22"/>
      <point x="178" y="123"/>
      <point x="178" y="300" type="curve" smooth="yes"/>
      <point x="178" y="477"/>
      <point x="323" y="622"/>
    </contour>
    <contour>
      <point x="500" y="484" type="curve" smooth="yes"/>
      <point x="398" y="484"/>
      <point x="316" y="402"/>
      <point x="316" y="300" type="curve" smooth="yes"/>
      <point x="316" y="198"/>
      <point x="398" y="116"/>
      <point x="500" y="116" type="curve" smooth="yes"/>
      <point x="602" y="116"/>
      <point x="684" y="198"/>
      <point x="684" y="300" type="curve" smooth="yes"/>
      <point x="684" y="402"/>
      <point x="602" y="484"/>
    </contour>
  </outline>
</glyph>
<glyph name="uni2682" format="2">
  <advance width="1000"/>
  <unicode hex="2682"/>
  <outline>
    <contour>
      <point x="500" y="700" type="curve" smooth="yes"/>
      <point x="721" y="700"/>
      <point x="900" y="521"/>
      <point x="900" y="300" type="curve" smooth="yes"/>
      <point x="900" y="79"/>
      <point x="721" y="-100"/>
      <point x="500" y="-100" type="curve" smooth="yes"/>
      <point x="279" y="-100"/>
      <point x="100" y="79"/>
      <point x="100" y="300" type="curve" smooth="yes"/>
      <point x="100" y="521"/>
      <point x="279" y="700"/>
    </contour>
    <contour>
      <point x="500" y="640" type="curve" smooth="yes"/>
      <point x="312" y="640"/>
      <point x="160" y="488"/>
      <point x="160" y="300" type="curve" smooth="yes"/>
      <point x="160" y="112"/>
      <point x="312" y="-40"/>
      <point x="500" y="-40" type="curve" smooth="yes"/>
      <point x="688" y="-40"/>
      <point x="840" y="112"/>
      <point x="840" y="300" type="curve" smooth="yes"/>
      <point x="840" y="488"/>
      <point x="688" y="640"/>
    </contour>
    <contour>
      <point x="500" y="570" type="curve" smooth="yes"/>
      <point x="528" y="570"/>
      <point x="550" y="548"/>
      <point x="550" y="520" type="curve" smooth="yes"/>
      <point x="550" y="492"/>
      <point x="528" y="470"/>
      <point x="500" y="470" type="curve" smooth="yes"/>
      <point x="413" y="470"/>
      <point x="341" y="406"/>
      <point x="331" y="320" type="curve" smooth="yes"/>
      <point x="321" y="234"/>
      <point x="377" y="155"/>
      <point x="461" y="135" type="curve" smooth="yes"/>
      <point x="545" y="115"/>
      <point x="630" y="161"/>
      <point x="660" y="242" type="curve" smooth="yes"/>
      <point x="667" y="261"/>
      <point x="685" y="275"/>
      <point x="707" y="275" type="curve" smooth="yes"/>
      <point x="713" y="275"/>
      <point x="719" y="274"/>
      <point x="724" y="272" type="curve" smooth="yes"/>
      <point x="743" y="265"/>
      <point x="757" y="247"/>
      <point x="757" y="225" type="curve" smooth="yes"/>
      <point x="757" y="219"/>
      <point x="756" y="213"/>
      <point x="754" y="208" type="curve" smooth="yes"/>
      <point x="707" y="80"/>
      <point x="571" y="6"/>
      <point x="438" y="37" type="curve" smooth="yes"/>
      <point x="305" y="68"/>
      <point x="216" y="195"/>
      <point x="232" y="331" type="curve" smooth="yes"/>
      <point x="248" y="467"/>
      <point x="363" y="570"/>
    </contour>
  </outline>
</glyph>
<glyph name="uni2683" format="2">
  <advance width="1000"/>
  <unicode hex="2683"/>
  <outline>
    <contour>
      <point x="500" y="700" type="curve" smooth="yes"/>
      <point x="721" y="700"/>
      <point x="900" y="521"/>
      <point x="900" y="300" type="curve" smooth="yes"/>
      <point x="900" y="79"/>
      <point x="721" y="-100"/>
      <point x="500" y="-100" type="curve" smooth="yes"/>
      <point x="279" y="-100"/>
      <point x="100" y="79"/>
      <point x="100" y="300" type="curve" smooth="yes"/>
      <point x="100" y="521"/>
      <point x="279" y="700"/>
    </contour>
    <contour>
      <point x="500" y="640" type="curve" smooth="yes"/>
      <point x="312" y="640"/>
      <point x="160" y="488"/>
      <point x="160" y="300" type="curve" smooth="yes"/>
      <point x="160" y="112"/>
      <point x="312" y="-40"/>
      <point x="500" y="-40" type="curve" smooth="yes"/>
      <point x="688" y="-40"/>
      <point x="840" y="112"/>
      <point x="840" y="300" type="curve" smooth="yes"/>
      <point x="840" y="488"/>
      <point x="688" y="640"/>
    </contour>
    <contour>
      <point x="500" y="570" type="curve" smooth="yes"/>
      <point x="528" y="570"/>
      <point x="550" y="548"/>
      <point x="550" y="520" type="curve" smooth="yes"/>
      <point x="550" y="492"/>
      <point x="528" y="470"/>
      <point x="500" y="470" type="curve" smooth="yes"/>
      <point x="428" y="470"/>
      <point x="365" y="425"/>
      <point x="340" y="358" type="curve" smooth="yes"/>
      <point x="315" y="291"/>
      <point x="336" y="216"/>
      <point x="391" y="170" type="curve" smooth="yes"/>
      <point x="402" y="161"/>
      <point x="409" y="147"/>
      <point x="409" y="132" type="curve" smooth="yes"/>
      <point x="409" y="120"/>
      <point x="404" y="108"/>
      <point x="397" y="99" type="curve" smooth="yes"/>
      <point x="388" y="88"/>
      <point x="373" y="81"/>
      <point x="358" y="81" type="curve" smooth="yes"/>
      <point x="346" y="81"/>
      <point x="335" y="86"/>
      <point x="326" y="93" type="curve" smooth="yes"/>
      <point x="239" y="166"/>
      <point x="207" y="285"/>
      <point x="246" y="392" type="curve" smooth="yes"/>
      <point x="285" y="499"/>
      <point x="387" y="570"/>
    </contour>
  </outline>
</glyph>
<glyph name="uni2684" format="2">
  <advance width="1000"/>
  <unicode hex="2684"/>
  <outline>
    <contour>
      <point x="500" y="700" type="curve" smooth="yes"/>
      <point x="721" y="700"/>
      <point x="900" y="521"/>
      <point x="900" y="300" type="curve" smooth="yes"/>
      <point x="900" y="79"/>
      <point x="721" y="-100"/>
      <point x="500" y="-100" type="curve" smooth="yes"/>
      <point x="279" y="-100"/>
      <point x="100" y="79"/>
      <point x="100" y="300" type="curve" smooth="yes"/>
      <point x="100" y="521"/>
      <point x="279" y="700"/>
    </contour>
    <contour>
      <point x="500" y="640" type="curve" smooth="yes"/>
      <point x="312" y="640"/>
      <point x="160" y="488"/>
      <point x="160" y="300" type="curve" smooth="yes"/>
      <point x="160" y="112"/>
      <point x="312" y="-40"/>
      <point x="500" y="-40" type="curve" smooth="yes"/>
      <point x="688" y="-40"/>
      <point x="840" y="112"/>
      <point x="840" y="300" type="curve" smooth="yes"/>
      <point x="840" y="488"/>
      <point x="688" y="640"/>
    </contour>
    <contour>
      <point x="500" y="570" type="curve" smooth="yes"/>
      <point x="528" y="570"/>
      <point x="550" y="548"/>
      <point x="550" y="520" type="curve" smooth="yes"/>
      <point x="550" y="492"/>
      <point x="528" y="470"/>
      <point x="500" y="470" type="curve" smooth="yes"/>
      <point x="470" y="470"/>
      <point x="441" y="462"/>
      <point x="415" y="447" type="curve" smooth="yes"/>
      <point x="408" y="443"/>
      <point x="399" y="440"/>
      <point x="390" y="440" type="curve" smooth="yes"/>
      <point x="372" y="440"/>
      <point x="356" y="450"/>
      <point x="347" y="465" type="curve" smooth="yes"/>
      <point x="343" y="472"/>
      <point x="340" y="481"/>
      <point x="340" y="490" type="curve" smooth="yes"/>
      <point x="340" y="509"/>
      <point x="350" y="525"/>
      <point x="365" y="534" type="curve" smooth="yes"/>
      <point x="406" y="558"/>
      <point x="453" y="570"/>
    </contour>
  </outline>
</glyph>
<glyph name="uni2685" format="2">
  <advance width="1000"/>
  <unicode hex="2685"/>
  <outline>
    <contour>
      <point x="500" y="715" type="curve" smooth="yes"/>
      <point x="729" y="715"/>
      <point x="915" y="529"/>
      <point x="915" y="300" type="curve" smooth="yes"/>
      <point x="915" y="71"/>
      <point x="729" y="-115"/>
      <point x="500" y="-115" type="curve" smooth="yes"/>
      <point x="271" y="-115"/>
      <point x="85" y="71"/>
      <point x="85" y="300" type="curve" smooth="yes"/>
      <point x="85" y="529"/>
      <point x="271" y="715"/>
    </contour>
    <contour>
      <point x="500" y="665" type="curve" smooth="yes"/>
      <point x="298" y="665"/>
      <point x="135" y="502"/>
      <point x="135" y="300" type="curve" smooth="yes"/>
      <point x="135" y="98"/>
      <point x="298" y="-65"/>
      <point x="500" y="-65" type="curve" smooth="yes"/>
      <point x="702" y="-65"/>
      <point x="865" y="98"/>
      <point x="865" y="300" type="curve" smooth="yes"/>
      <point x="865" y="502"/>
      <point x="702" y="665"/>
    </contour>
    <contour>
      <point x="500" y="610" type="curve" smooth="yes"/>
      <point x="671" y="610"/>
      <point x="810" y="471"/>
      <point x="810" y="300" type="curve" smooth="yes"/>
      <point x="810" y="129"/>
      <point x="671" y="-10"/>
      <point x="500" y="-10" type="curve" smooth="yes"/>
      <point x="329" y="-10"/>
      <point x="190" y="129"/>
      <point x="190" y="300" type="curve" smooth="yes"/>
      <point x="190" y="471"/>
      <point x="329" y="610"/>
    </contour>
    <contour>
      <point x="500" y="510" type="curve" smooth="yes"/>
      <point x="383" y="510"/>
      <point x="290" y="417"/>
      <point x="290" y="300" type="curve" smooth="yes"/>
      <point x="290" y="183"/>
      <point x="383" y="90"/>
      <point x="500" y="90" type="curve" smooth="yes"/>
      <point x="617" y="90"/>
      <point x="710" y="183"/>
      <point x="710" y="300" type="curve" smooth="yes"/>
      <point x="710" y="417"/>
      <point x="617" y="510"/>
    </contour>
    <contour>
      <point x="500" y="450" type="curve" smooth="yes"/>
      <point x="583" y="450"/>
      <point x="650" y="383"/>
      <point x="650" y="300" type="curve" smooth="yes"/>
      <point x="650" y="217"/>
      <point x="583" y="150"/>
      <point x="500" y="150" type="curve" smooth="yes"/>
      <point x="417" y="150"/>
      <point x="350" y="217"/>
      <point x="350" y="300" type="curve" smooth="yes"/>
      <point x="350" y="383"/>
      <point x="417" y="450"/>
    </contour>
  </outline>
</glyph>
<glyph name="uni2689" format="2">
  <advance width="1000"/>
  <unicode hex="2689"/>
  <outline>
    <contour>
      <point x="500" y="620" type="curve" smooth="yes"/>
      <point x="677" y="620"/>
      <point x="820" y="477"/>
      <point x="820" y="300" type="curve" smooth="yes"/>
      <point x="820" y="123"/>
      <point x="677" y="-20"/>
      <point x="500" y="-20" type="curve" smooth="yes"/>
      <point x="323" y="-20"/>
      <point x="180" y="123"/>
      <point x="180" y="300" type="curve" smooth="yes"/>
      <point x="180" y="477"/>
      <point x="323" y="620"/>
    </contour>
    <contour>
      <point x="360" y="390" type="curve" smooth="yes"/>
      <point x="338" y="390"/>
      <point x="320" y="372"/>
      <point x="320" y="350" type="curve" smooth="yes"/>
      <point x="320" y="250" type="line" smooth="yes"/>
      <point x="320" y="228"/>
      <point x="338" y="210"/>
      <point x="360" y="210" type="curve" smooth="yes"/>
      <point x="382" y="210"/>
      <point x="400" y="228"/>
      <point x="400" y="250" type="curve" smooth="yes"/>
      <point x="400" y="350" type="line" smooth="yes"/>
      <point x="400" y="372"/>
      <point x="382" y="390"/>
    </contour>
    <contour>
      <point x="640" y="390" type="curve" smooth="yes"/>
      <point x="618" y="390"/>
      <point x="600" y="372"/>
      <point x="600" y="350" type="curve" smooth="yes"/>
      <point x="600" y="250" type="line" smooth="yes"/>
      <point x="600" y="228"/>
      <point x="618" y="210"/>
      <point x="640" y="210" type="curve" smooth="yes"/>
      <point x="662" y="210"/>
      <point x="680" y="228"/>
      <point x="680" y="250" type="curve" smooth="yes"/>
      <point x="680" y="350" type="line" smooth="yes"/>
      <point x="680" y="372"/>
      <point x="662" y="390"/>
    </contour>
  </outline>
</glyph>
<glyph name="uni26A0" format="2">
  <advance width="1000"/>
  <unicode hex="26A0"/>
  <outline>
    <contour>
      <point x="270" y="470" type="curve" smooth="yes"/>
      <point x="270" y="597"/>
      <point x="373" y="700"/>
      <point x="500" y="700" type="curve" smooth="yes"/>
      <point x="627" y="700"/>
      <point x="730" y="597"/>
      <point x="730" y="470" type="curve" smooth="yes"/>
      <point x="730" y="343"/>
      <point x="627" y="240"/>
      <point x="500" y="240" type="curve" smooth="yes"/>
      <point x="373" y="240"/>
      <point x="270" y="343"/>
    </contour>
    <contour>
      <point x="500" y="140" type="curve" smooth="yes"/>
      <point x="566" y="140"/>
      <point x="620" y="86"/>
      <point x="620" y="20" type="curve" smooth="yes"/>
      <point x="620" y="-46"/>
      <point x="566" y="-100"/>
      <point x="500" y="-100" type="curve" smooth="yes"/>
      <point x="434" y="-100"/>
      <point x="380" y="-46"/>
      <point x="380" y="20" type="curve" smooth="yes"/>
      <point x="380" y="86"/>
      <point x="434" y="140"/>
    </contour>
  </outline>
</glyph>
<glyph name="uni26A1" format="2">
  <advance width="1000"/>
  <unicode hex="26A1"/>
  <outline>
    <contour>
      <point x="600" y="380" type="curve" smooth="yes"/>
      <point x="583" y="380"/>
      <point x="570" y="367"/>
      <point x="570" y="350" type="curve" smooth="yes"/>
      <point x="570" y="250" type="line" smooth="yes"/>
      <point x="570" y="233"/>
      <point x="583" y="220"/>
      <point x="600" y="220" type="curve" smooth="yes"/>
      <point x="617" y="220"/>
      <point x="630" y="233"/>
      <point x="630" y="250" type="curve" smooth="yes"/>
      <point x="630" y="350" type="line" smooth="yes"/>
      <point x="630" y="367"/>
      <point x="617" y="380"/>
    </contour>
    <contour>
      <point x="400" y="380" type="curve" smooth="yes"/>
      <point x="383" y="380"/>
      <point x="370" y="367"/>
      <point x="370" y="350" type="curve" smooth="yes"/>
      <point x="370" y="250" type="line" smooth="yes"/>
      <point x="370" y="233"/>
      <point x="383" y="220"/>
      <point x="400" y="220" type="curve" smooth="yes"/>
      <point x="417" y="220"/>
      <point x="430" y="233"/>
      <point x="430" y="250" type="curve" smooth="yes"/>
      <point x="430" y="350" type="line" smooth="yes"/>
      <point x="430" y="367"/>
      <point x="417" y="380"/>
    </contour>
    <contour>
      <point x="500" y="525" type="curve" smooth="yes"/>
      <point x="625" y="525"/>
      <point x="725" y="425"/>
      <point x="725" y="300" type="curve" smooth="yes"/>
      <point x="725" y="175"/>
      <point x="625" y="75"/>
      <point x="500" y="75" type="curve" smooth="yes"/>
      <point x="375" y="75"/>
      <point x="275" y="175"/>
      <point x="275" y="300" type="curve" smooth="yes"/>
      <point x="275" y="425"/>
      <point x="375" y="525"/>
    </contour>
    <contour>
      <point x="500" y="575" type="curve" smooth="yes"/>
      <point x="348" y="575"/>
      <point x="225" y="452"/>
      <point x="225" y="300" type="curve" smooth="yes"/>
      <point x="225" y="148"/>
      <point x="348" y="25"/>
      <point x="500" y="25" type="curve" smooth="yes"/>
      <point x="652" y="25"/>
      <point x="775" y="148"/>
      <point x="775" y="300" type="curve" smooth="yes"/>
      <point x="775" y="452"/>
      <point x="652" y="575"/>
    </contour>
    <contour>
      <point x="500" y="650" type="curve" smooth="yes"/>
      <point x="693" y="650"/>
      <point x="850" y="493"/>
      <point x="850" y="300" type="curve" smooth="yes"/>
      <point x="850" y="107"/>
      <point x="693" y="-50"/>
      <point x="500" y="-50" type="curve" smooth="yes"/>
      <point x="307" y="-50"/>
      <point x="150" y="107"/>
      <point x="150" y="300" type="curve" smooth="yes"/>
      <point x="150" y="493"/>
      <point x="307" y="650"/>
    </contour>
  </outline>
</glyph>
<glyph name="uni26C1" format="2">
  <advance width="1000"/>
  <unicode hex="26C1"/>
  <outline>
    <contour>
      <point x="740" y="325" type="curve" smooth="yes"/>
      <point x="830" y="325" type="line" smooth="yes"/>
      <point x="844" y="325"/>
      <point x="855" y="314"/>
      <point x="855" y="300" type="curve" smooth="yes"/>
      <point x="855" y="286"/>
      <point x="844" y="275"/>
      <point x="830" y="275" type="curve" smooth="yes"/>
      <point x="740" y="275" type="line" smooth="yes"/>
      <point x="726" y="275"/>
      <point x="715" y="286"/>
      <point x="715" y="300" type="curve" smooth="yes"/>
      <point x="715" y="314"/>
      <point x="726" y="325"/>
    </contour>
    <contour>
      <point x="500" y="425" type="curve" smooth="yes"/>
      <point x="431" y="425"/>
      <point x="375" y="369"/>
      <point x="375" y="300" type="curve" smooth="yes"/>
      <point x="375" y="231"/>
      <point x="431" y="175"/>
      <point x="500" y="175" type="curve" smooth="yes"/>
      <point x="569" y="175"/>
      <point x="625" y="231"/>
      <point x="625" y="300" type="curve" smooth="yes"/>
      <point x="625" y="369"/>
      <point x="569" y="425"/>
    </contour>
    <contour>
      <point x="500" y="475" type="curve" smooth="yes"/>
      <point x="596" y="475"/>
      <point x="675" y="396"/>
      <point x="675" y="300" type="curve" smooth="yes"/>
      <point x="675" y="204"/>
      <point x="596" y="125"/>
      <point x="500" y="125" type="curve" smooth="yes"/>
      <point x="404" y="125"/>
      <point x="325" y="204"/>
      <point x="325" y="300" type="curve" smooth="yes"/>
      <point x="325" y="396"/>
      <point x="404" y="475"/>
    </contour>
    <contour>
      <point x="500" y="695" type="curve" smooth="yes"/>
      <point x="282" y="695"/>
      <point x="105" y="518"/>
      <point x="105" y="300" type="curve" smooth="yes"/>
      <point x="105" y="82"/>
      <point x="282" y="-95"/>
      <point x="500" y="-95" type="curve" smooth="yes"/>
      <point x="718" y="-95"/>
      <point x="895" y="82"/>
      <point x="895" y="300" type="curve" smooth="yes"/>
      <point x="895" y="518"/>
      <point x="718" y="695"/>
    </contour>
    <contour>
      <point x="500" y="745" type="curve" smooth="yes"/>
      <point x="745" y="745"/>
      <point x="945" y="545"/>
      <point x="945" y="300" type="curve" smooth="yes"/>
      <point x="945" y="55"/>
      <point x="745" y="-145"/>
      <point x="500" y="-145" type="curve" smooth="yes"/>
      <point x="255" y="-145"/>
      <point x="55" y="55"/>
      <point x="55" y="300" type="curve" smooth="yes"/>
      <point x="55" y="545"/>
      <point x="255" y="745"/>
    </contour>
    <contour>
      <point x="170" y="325" type="curve" smooth="yes"/>
      <point x="260" y="325" type="line" smooth="yes"/>
      <point x="274" y="325"/>
      <point x="285" y="314"/>
      <point x="285" y="300" type="curve" smooth="yes"/>
      <point x="285" y="286"/>
      <point x="274" y="275"/>
      <point x="260" y="275" type="curve" smooth="yes"/>
      <point x="170" y="275" type="line" smooth="yes"/>
      <point x="156" y="275"/>
      <point x="145" y="286"/>
      <point x="145" y="300" type="curve" smooth="yes"/>
      <point x="145" y="314"/>
      <point x="156" y="325"/>
    </contour>
  </outline>
</glyph>
<glyph name="uni26D2" format="2">
  <advance width="1000"/>
  <unicode hex="26D2"/>
  <outline>
    <contour>
      <point x="500" y="600" type="curve" smooth="yes"/>
      <point x="666" y="600"/>
      <point x="800" y="466"/>
      <point x="800" y="300" type="curve" smooth="yes"/>
      <point x="800" y="134"/>
      <point x="666" y="0"/>
      <point x="500" y="0" type="curve" smooth="yes"/>
      <point x="334" y="0"/>
      <point x="200" y="134"/>
      <point x="200" y="300" type="curve" smooth="yes"/>
      <point x="200" y="466"/>
      <point x="334" y="600"/>
    </contour>
    <contour>
      <point x="500" y="510" type="curve" smooth="yes"/>
      <point x="434" y="510"/>
      <point x="380" y="456"/>
      <point x="380" y="390" type="curve" smooth="yes"/>
      <point x="380" y="324"/>
      <point x="434" y="270"/>
      <point x="500" y="270" type="curve" smooth="yes"/>
      <point x="566" y="270"/>
      <point x="620" y="324"/>
      <point x="620" y="390" type="curve" smooth="yes"/>
      <point x="620" y="456"/>
      <point x="566" y="510"/>
    </contour>
    <contour>
      <point x="500" y="200" type="curve" smooth="yes"/>
      <point x="467" y="200"/>
      <point x="440" y="173"/>
      <point x="440" y="140" type="curve" smooth="yes"/>
      <point x="440" y="107"/>
      <point x="467" y="80"/>
      <point x="500" y="80" type="curve" smooth="yes"/>
      <point x="533" y="80"/>
      <point x="560" y="107"/>
      <point x="560" y="140" type="curve" smooth="yes"/>
      <point x="560" y="173"/>
      <point x="533" y="200"/>
    </contour>
  </outline>
</glyph>
<glyph name="uni26EC" format="2">
  <advance width="1000"/>
  <unicode hex="26EC"/>
  <outline>
    <contour>
      <point x="500" y="700" type="curve" smooth="yes"/>
      <point x="583" y="700"/>
      <point x="650" y="633"/>
      <point x="650" y="550" type="curve" smooth="yes"/>
      <point x="650" y="467"/>
      <point x="583" y="400"/>
      <point x="500" y="400" type="curve" smooth="yes"/>
      <point x="417" y="400"/>
      <point x="350" y="467"/>
      <point x="350" y="550" type="curve" smooth="yes"/>
      <point x="350" y="633"/>
      <point x="417" y="700"/>
    </contour>
    <contour>
      <point x="241" y="252" type="curve" smooth="yes"/>
      <point x="324" y="252"/>
      <point x="391" y="185"/>
      <point x="391" y="102" type="curve" smooth="yes"/>
      <point x="391" y="19"/>
      <point x="324" y="-48"/>
      <point x="241" y="-48" type="curve" smooth="yes"/>
      <point x="158" y="-48"/>
      <point x="91" y="19"/>
      <point x="91" y="102" type="curve" smooth="yes"/>
      <point x="91" y="185"/>
      <point x="158" y="252"/>
    </contour>
    <contour>
      <point x="759" y="252" type="curve" smooth="yes"/>
      <point x="842" y="252"/>
      <point x="909" y="185"/>
      <point x="909" y="102" type="curve" smooth="yes"/>
      <point x="909" y="19"/>
      <point x="842" y="-48"/>
      <point x="759" y="-48" type="curve" smooth="yes"/>
      <point x="676" y="-48"/>
      <point x="609" y="19"/>
      <point x="609" y="102" type="curve" smooth="yes"/>
      <point x="609" y="185"/>
      <point x="676" y="252"/>
    </contour>
  </outline>
</glyph>
<glyph name="uni26ED" format="2">
  <advance width="1000"/>
  <unicode hex="26ED"/>
  <outline>
    <contour>
      <point x="500" y="700" type="curve" smooth="yes"/>
      <point x="555" y="700"/>
      <point x="600" y="655"/>
      <point x="600" y="600" type="curve" smooth="yes"/>
      <point x="600" y="545"/>
      <point x="555" y="500"/>
      <point x="500" y="500" type="curve" smooth="yes"/>
      <point x="445" y="500"/>
      <point x="400" y="545"/>
      <point x="400" y="600" type="curve" smooth="yes"/>
      <point x="400" y="655"/>
      <point x="445" y="700"/>
    </contour>
    <contour>
      <point x="500" y="300" type="curve" smooth="yes"/>
      <point x="528" y="300"/>
      <point x="550" y="278"/>
      <point x="550" y="250" type="curve" smooth="yes"/>
      <point x="550" y="222"/>
      <point x="528" y="200"/>
      <point x="500" y="200" type="curve" smooth="yes"/>
      <point x="472" y="200"/>
      <point x="450" y="222"/>
      <point x="450" y="250" type="curve" smooth="yes"/>
      <point x="450" y="278"/>
      <point x="472" y="300"/>
    </contour>
    <contour>
      <point x="500" y="60" type="curve" smooth="yes"/>
      <point x="544" y="60"/>
      <point x="580" y="24"/>
      <point x="580" y="-20" type="curve" smooth="yes"/>
      <point x="580" y="-64"/>
      <point x="544" y="-100"/>
      <point x="500" y="-100" type="curve" smooth="yes"/>
      <point x="456" y="-100"/>
      <point x="420" y="-64"/>
      <point x="420" y="-20" type="curve" smooth="yes"/>
      <point x="420" y="24"/>
      <point x="456" y="60"/>
    </contour>
  </outline>
</glyph>
<glyph name="uni26EE" format="2">
  <advance width="1000"/>
  <unicode hex="26EE"/>
  <outline>
    <contour>
      <point x="280" y="300" type="curve" smooth="yes"/>
      <point x="280" y="421"/>
      <point x="379" y="520"/>
      <point x="500" y="520" type="curve" smooth="yes"/>
      <point x="621" y="520"/>
      <point x="720" y="421"/>
      <point x="720" y="300" type="curve" smooth="yes"/>
      <point x="720" y="179"/>
      <point x="621" y="80"/>
      <point x="500" y="80" type="curve" smooth="yes"/>
      <point x="379" y="80"/>
      <point x="280" y="179"/>
    </contour>
    <contour>
      <point x="770" y="300" type="curve" smooth="yes"/>
      <point x="770" y="333"/>
      <point x="797" y="360"/>
      <point x="830" y="360" type="curve" smooth="yes"/>
      <point x="863" y="360"/>
      <point x="890" y="333"/>
      <point x="890" y="300" type="curve" smooth="yes"/>
      <point x="890" y="267"/>
      <point x="863" y="240"/>
      <point x="830" y="240" type="curve" smooth="yes"/>
      <point x="797" y="240"/>
      <point x="770" y="267"/>
    </contour>
    <contour>
      <point x="770" y="120" type="curve" smooth="yes"/>
      <point x="770" y="153"/>
      <point x="797" y="180"/>
      <point x="830" y="180" type="curve" smooth="yes"/>
      <point x="863" y="180"/>
      <point x="890" y="153"/>
      <point x="890" y="120" type="curve" smooth="yes"/>
      <point x="890" y="87"/>
      <point x="863" y="60"/>
      <point x="830" y="60" type="curve" smooth="yes"/>
      <point x="797" y="60"/>
      <point x="770" y="87"/>
    </contour>
    <contour>
      <point x="770" y="480" type="curve" smooth="yes"/>
      <point x="770" y="513"/>
      <point x="797" y="540"/>
      <point x="830" y="540" type="curve" smooth="yes"/>
      <point x="863" y="540"/>
      <point x="890" y="513"/>
      <point x="890" y="480" type="curve" smooth="yes"/>
      <point x="890" y="447"/>
      <point x="863" y="420"/>
      <point x="830" y="420" type="curve" smooth="yes"/>
      <point x="797" y="420"/>
      <point x="770" y="447"/>
    </contour>
    <contour>
      <point x="110" y="300" type="curve" smooth="yes"/>
      <point x="110" y="333"/>
      <point x="137" y="360"/>
      <point x="170" y="360" type="curve" smooth="yes"/>
      <point x="203" y="360"/>
      <point x="230" y="333"/>
      <point x="230" y="300" type="curve" smooth="yes"/>
      <point x="230" y="267"/>
      <point x="203" y="240"/>
      <point x="170" y="240" type="curve" smooth="yes"/>
      <point x="137" y="240"/>
      <point x="110" y="267"/>
    </contour>
    <contour>
      <point x="110" y="120" type="curve" smooth="yes"/>
      <point x="110" y="153"/>
      <point x="137" y="180"/>
      <point x="170" y="180" type="curve" smooth="yes"/>
      <point x="203" y="180"/>
      <point x="230" y="153"/>
      <point x="230" y="120" type="curve" smooth="yes"/>
      <point x="230" y="87"/>
      <point x="203" y="60"/>
      <point x="170" y="60" type="curve" smooth="yes"/>
      <point x="137" y="60"/>
      <point x="110" y="87"/>
    </contour>
    <contour>
      <point x="110" y="480" type="curve" smooth="yes"/>
      <point x="110" y="513"/>
      <point x="137" y="540"/>
      <point x="170" y="540" type="curve" smooth="yes"/>
      <point x="203" y="540"/>
      <point x="230" y="513"/>
      <point x="230" y="480" type="curve" smooth="yes"/>
      <point x="230" y="447"/>
      <point x="203" y="420"/>
      <point x="170" y="420" type="curve" smooth="yes"/>
      <point x="137" y="420"/>
      <point x="110" y="447"/>
    </contour>
  </outline>
</glyph>
<glyph name="uni26EF" format="2">
  <advance width="1000"/>
  <unicode hex="26EF"/>
  <outline>
    <contour>
      <point x="661" y="74" type="curve" smooth="yes"/>
      <point x="661" y="110"/>
      <point x="690" y="139"/>
      <point x="726" y="139" type="curve" smooth="yes"/>
      <point x="762" y="139"/>
      <point x="791" y="110"/>
      <point x="791" y="74" type="curve" smooth="yes"/>
      <point x="791" y="38"/>
      <point x="762" y="9"/>
      <point x="726" y="9" type="curve" smooth="yes"/>
      <point x="690" y="9"/>
      <point x="661" y="38"/>
    </contour>
    <contour>
      <point x="209" y="526" type="curve" smooth="yes"/>
      <point x="209" y="562"/>
      <point x="238" y="591"/>
      <point x="274" y="591" type="curve" smooth="yes"/>
      <point x="310" y="591"/>
      <point x="339" y="562"/>
      <point x="339" y="526" type="curve" smooth="yes"/>
      <point x="339" y="490"/>
      <point x="310" y="461"/>
      <point x="274" y="461" type="curve" smooth="yes"/>
      <point x="238" y="461"/>
      <point x="209" y="490"/>
    </contour>
    <contour>
      <point x="209" y="74" type="curve" smooth="yes"/>
      <point x="209" y="110"/>
      <point x="238" y="139"/>
      <point x="274" y="139" type="curve" smooth="yes"/>
      <point x="310" y="139"/>
      <point x="339" y="110"/>
      <point x="339" y="74" type="curve" smooth="yes"/>
      <point x="339" y="38"/>
      <point x="310" y="9"/>
      <point x="274" y="9" type="curve" smooth="yes"/>
      <point x="238" y="9"/>
      <point x="209" y="38"/>
    </contour>
    <contour>
      <point x="661" y="526" type="curve" smooth="yes"/>
      <point x="661" y="562"/>
      <point x="690" y="591"/>
      <point x="726" y="591" type="curve" smooth="yes"/>
      <point x="762" y="591"/>
      <point x="791" y="562"/>
      <point x="791" y="526" type="curve" smooth="yes"/>
      <point x="791" y="490"/>
      <point x="762" y="461"/>
      <point x="726" y="461" type="curve" smooth="yes"/>
      <point x="690" y="461"/>
      <point x="661" y="490"/>
    </contour>
    <contour>
      <point x="755" y="300" type="curve" smooth="yes"/>
      <point x="755" y="336"/>
      <point x="784" y="365"/>
      <point x="820" y="365" type="curve" smooth="yes"/>
      <point x="856" y="365"/>
      <point x="885" y="336"/>
      <point x="885" y="300" type="curve" smooth="yes"/>
      <point x="885" y="264"/>
      <point x="856" y="235"/>
      <point x="820" y="235" type="curve" smooth="yes"/>
      <point x="784" y="235"/>
      <point x="755" y="264"/>
    </contour>
    <contour>
      <point x="115" y="300" type="curve" smooth="yes"/>
      <point x="115" y="336"/>
      <point x="144" y="365"/>
      <point x="180" y="365" type="curve" smooth="yes"/>
      <point x="216" y="365"/>
      <point x="245" y="336"/>
      <point x="245" y="300" type="curve" smooth="yes"/>
      <point x="245" y="264"/>
      <point x="216" y="235"/>
      <point x="180" y="235" type="curve" smooth="yes"/>
      <point x="144" y="235"/>
      <point x="115" y="264"/>
    </contour>
    <contour>
      <point x="435" y="-20" type="curve" smooth="yes"/>
      <point x="435" y="16"/>
      <point x="464" y="45"/>
      <point x="500" y="45" type="curve" smooth="yes"/>
      <point x="536" y="45"/>
      <point x="565" y="16"/>
      <point x="565" y="-20" type="curve" smooth="yes"/>
      <point x="565" y="-56"/>
      <point x="536" y="-85"/>
      <point x="500" y="-85" type="curve" smooth="yes"/>
      <point x="464" y="-85"/>
      <point x="435" y="-56"/>
    </contour>
    <contour>
      <point x="435" y="620" type="curve" smooth="yes"/>
      <point x="435" y="656"/>
      <point x="464" y="685"/>
      <point x="500" y="685" type="curve" smooth="yes"/>
      <point x="536" y="685"/>
      <point x="565" y="656"/>
      <point x="565" y="620" type="curve" smooth="yes"/>
      <point x="565" y="584"/>
      <point x="536" y="555"/>
      <point x="500" y="555" type="curve" smooth="yes"/>
      <point x="464" y="555"/>
      <point x="435" y="584"/>
    </contour>
    <contour>
      <point x="500" y="480" type="curve" smooth="yes"/>
      <point x="599" y="480"/>
      <point x="680" y="399"/>
      <point x="680" y="300" type="curve" smooth="yes"/>
      <point x="680" y="201"/>
      <point x="599" y="120"/>
      <point x="500" y="120" type="curve" smooth="yes"/>
      <point x="401" y="120"/>
      <point x="320" y="201"/>
      <point x="320" y="300" type="curve" smooth="yes"/>
      <point x="320" y="399"/>
      <point x="401" y="480"/>
    </contour>
  </outline>
</glyph>
<glyph name="uni2706" format="2">
  <advance width="1000"/>
  <unicode hex="2706"/>
  <outline>
    <contour>
      <point x="320" y="670" type="curve" smooth="yes"/>
      <point x="430" y="670"/>
      <point x="520" y="580"/>
      <point x="520" y="470" type="curve" smooth="yes"/>
      <point x="520" y="468"/>
      <point x="520" y="466"/>
      <point x="520" y="464" type="curve" smooth="yes"/>
      <point x="669" y="429" type="line"/>
      <point x="693" y="469"/>
      <point x="736" y="495"/>
      <point x="785" y="495" type="curve" smooth="yes"/>
      <point x="859" y="495"/>
      <point x="920" y="434"/>
      <point x="920" y="360" type="curve" smooth="yes"/>
      <point x="920" y="286"/>
      <point x="859" y="225"/>
      <point x="785" y="225" type="curve" smooth="yes"/>
      <point x="714" y="225"/>
      <point x="655" y="281"/>
      <point x="650" y="351" type="curve"/>
      <point x="501" y="386" type="line"/>
      <point x="483" y="348"/>
      <point x="454" y="316"/>
      <point x="417" y="296" type="curve"/>
      <point x="462" y="155" type="line"/>
      <point x="530" y="154"/>
      <point x="585" y="98"/>
      <point x="585" y="30" type="curve" smooth="yes"/>
      <point x="585" y="-39"/>
      <point x="529" y="-95"/>
      <point x="460" y="-95" type="curve" smooth="yes"/>
      <point x="391" y="-95"/>
      <point x="335" y="-39"/>
      <point x="335" y="30" type="curve" smooth="yes"/>
      <point x="335" y="71"/>
      <point x="355" y="108"/>
      <point x="386" y="131" type="curve"/>
      <point x="341" y="271" type="line"/>
      <point x="334" y="270"/>
      <point x="327" y="270"/>
      <point x="320" y="270" type="curve" smooth="yes"/>
      <point x="210" y="270"/>
      <point x="120" y="360"/>
      <point x="120" y="470" type="curve" smooth="yes"/>
      <point x="120" y="580"/>
      <point x="210" y="670"/>
    </contour>
  </outline>
</glyph>
<glyph name="uni2707" format="2">
  <advance width="1000"/>
  <unicode hex="2707"/>
  <outline>
    <contour>
      <point x="500" y="600" type="curve" smooth="yes"/>
      <point x="638" y="600"/>
      <point x="750" y="488"/>
      <point x="750" y="350" type="curve" smooth="yes"/>
      <point x="750" y="212"/>
      <point x="638" y="100"/>
      <point x="500" y="100" type="curve" smooth="yes"/>
      <point x="362" y="100"/>
      <point x="250" y="212"/>
      <point x="250" y="350" type="curve" smooth="yes"/>
      <point x="250" y="488"/>
      <point x="362" y="600"/>
    </contour>
    <contour>
      <point x="500" y="470" type="curve" smooth="yes"/>
      <point x="472" y="470"/>
      <point x="450" y="448"/>
      <point x="450" y="420" type="curve" smooth="yes"/>
      <point x="450" y="392"/>
      <point x="472" y="370"/>
      <point x="500" y="370" type="curve" smooth="yes"/>
      <point x="528" y="370"/>
      <point x="550" y="392"/>
      <point x="550" y="420" type="curve" smooth="yes"/>
      <point x="550" y="448"/>
      <point x="528" y="470"/>
    </contour>
    <contour>
      <point x="270" y="110" type="curve" smooth="yes"/>
      <point x="314" y="110"/>
      <point x="350" y="74"/>
      <point x="350" y="30" type="curve" smooth="yes"/>
      <point x="350" y="-14"/>
      <point x="314" y="-50"/>
      <point x="270" y="-50" type="curve" smooth="yes"/>
      <point x="226" y="-50"/>
      <point x="190" y="-14"/>
      <point x="190" y="30" type="curve" smooth="yes"/>
      <point x="190" y="74"/>
      <point x="226" y="110"/>
    </contour>
    <contour>
      <point x="730" y="110" type="curve" smooth="yes"/>
      <point x="774" y="110"/>
      <point x="810" y="74"/>
      <point x="810" y="30" type="curve" smooth="yes"/>
      <point x="810" y="-14"/>
      <point x="774" y="-50"/>
      <point x="730" y="-50" type="curve" smooth="yes"/>
      <point x="686" y="-50"/>
      <point x="650" y="-14"/>
      <point x="650" y="30" type="curve" smooth="yes"/>
      <point x="650" y="74"/>
      <point x="686" y="110"/>
    </contour>
  </outline>
</glyph>
<glyph name="sparkles" format="2">
  <advance width="1000"/>
  <unicode hex="2728"/>
  <outline>
    <contour>
      <point x="270" y="737" type="curve" smooth="yes"/>
      <point x="396" y="737"/>
      <point x="500" y="634"/>
      <point x="500" y="507" type="curve" smooth="yes"/>
      <point x="500" y="505"/>
      <point x="500" y="503"/>
      <point x="500" y="500" type="curve" smooth="yes"/>
      <point x="671" y="460" type="line"/>
      <point x="699" y="506"/>
      <point x="748" y="536"/>
      <point x="805" y="536" type="curve" smooth="yes"/>
      <point x="890" y="536"/>
      <point x="960" y="466"/>
      <point x="960" y="381" type="curve" smooth="yes"/>
      <point x="960" y="296"/>
      <point x="890" y="226"/>
      <point x="805" y="226" type="curve" smooth="yes"/>
      <point x="723" y="226"/>
      <point x="655" y="290"/>
      <point x="649" y="371" type="curve"/>
      <point x="478" y="411" type="line"/>
      <point x="457" y="367"/>
      <point x="424" y="330"/>
      <point x="382" y="307" type="curve"/>
      <point x="433" y="145" type="line"/>
      <point x="512" y="144"/>
      <point x="575" y="80"/>
      <point x="575" y="1" type="curve" smooth="yes"/>
      <point x="575" y="-78"/>
      <point x="510" y="-142"/>
      <point x="431" y="-142" type="curve" smooth="yes"/>
      <point x="352" y="-142"/>
      <point x="287" y="-78"/>
      <point x="287" y="1" type="curve" smooth="yes"/>
      <point x="287" y="49"/>
      <point x="310" y="91"/>
      <point x="346" y="118" type="curve"/>
      <point x="294" y="279" type="line"/>
      <point x="286" y="277"/>
      <point x="278" y="277"/>
      <point x="270" y="277" type="curve" smooth="yes"/>
      <point x="143" y="277"/>
      <point x="40" y="381"/>
      <point x="40" y="507" type="curve" smooth="yes"/>
      <point x="40" y="634"/>
      <point x="143" y="737"/>
    </contour>
  </outline>
</glyph>
<glyph name="uni2731" format="2">
  <advance width="1000"/>
  <unicode hex="2731"/>
  <outline>
    <contour>
      <point x="500" y="380" type="curve" smooth="yes"/>
      <point x="544" y="380"/>
      <point x="580" y="344"/>
      <point x="580" y="300" type="curve" smooth="yes"/>
      <point x="580" y="256"/>
      <point x="544" y="220"/>
      <point x="500" y="220" type="curve" smooth="yes"/>
      <point x="456" y="220"/>
      <point x="420" y="256"/>
      <point x="420" y="300" type="curve" smooth="yes"/>
      <point x="420" y="344"/>
      <point x="456" y="380"/>
    </contour>
    <contour>
      <point x="500" y="430" type="curve" smooth="yes"/>
      <point x="428" y="430"/>
      <point x="370" y="372"/>
      <point x="370" y="300" type="curve" smooth="yes"/>
      <point x="370" y="228"/>
      <point x="428" y="170"/>
      <point x="500" y="170" type="curve" smooth="yes"/>
      <point x="572" y="170"/>
      <point x="630" y="228"/>
      <point x="630" y="300" type="curve" smooth="yes"/>
      <point x="630" y="372"/>
      <point x="572" y="430"/>
    </contour>
    <contour>
      <point x="500" y="490" type="curve" smooth="yes"/>
      <point x="605" y="490"/>
      <point x="690" y="405"/>
      <point x="690" y="300" type="curve" smooth="yes"/>
      <point x="690" y="195"/>
      <point x="605" y="110"/>
      <point x="500" y="110" type="curve" smooth="yes"/>
      <point x="395" y="110"/>
      <point x="310" y="195"/>
      <point x="310" y="300" type="curve" smooth="yes"/>
      <point x="310" y="405"/>
      <point x="395" y="490"/>
    </contour>
    <contour>
      <point x="500" y="540" type="curve" smooth="yes"/>
      <point x="367" y="540"/>
      <point x="260" y="433"/>
      <point x="260" y="300" type="curve" smooth="yes"/>
      <point x="260" y="167"/>
      <point x="367" y="60"/>
      <point x="500" y="60" type="curve" smooth="yes"/>
      <point x="633" y="60"/>
      <point x="740" y="167"/>
      <point x="740" y="300" type="curve" smooth="yes"/>
      <point x="740" y="433"/>
      <point x="633" y="540"/>
    </contour>
    <contour>
      <point x="500" y="600" type="curve" smooth="yes"/>
      <point x="665" y="600"/>
      <point x="800" y="465"/>
      <point x="800" y="300" type="curve" smooth="yes"/>
      <point x="800" y="135"/>
      <point x="665" y="0"/>
      <point x="500" y="0" type="curve" smooth="yes"/>
      <point x="335" y="0"/>
      <point x="200" y="135"/>
      <point x="200" y="300" type="curve" smooth="yes"/>
      <point x="200" y="465"/>
      <point x="335" y="600"/>
    </contour>
    <contour>
      <point x="500" y="650" type="curve" smooth="yes"/>
      <point x="306" y="650"/>
      <point x="150" y="494"/>
      <point x="150" y="300" type="curve" smooth="yes"/>
      <point x="150" y="106"/>
      <point x="306" y="-50"/>
      <point x="500" y="-50" type="curve" smooth="yes"/>
      <point x="694" y="-50"/>
      <point x="850" y="106"/>
      <point x="850" y="300" type="curve" smooth="yes"/>
      <point x="850" y="494"/>
      <point x="694" y="650"/>
    </contour>
    <contour>
      <point x="500" y="710" type="curve" smooth="yes"/>
      <point x="726" y="710"/>
      <point x="910" y="526"/>
      <point x="910" y="300" type="curve" smooth="yes"/>
      <point x="910" y="74"/>
      <point x="726" y="-110"/>
      <point x="500" y="-110" type="curve" smooth="yes"/>
      <point x="274" y="-110"/>
      <point x="90" y="74"/>
      <point x="90" y="300" type="curve" smooth="yes"/>
      <point x="90" y="526"/>
      <point x="274" y="710"/>
    </contour>
  </outline>
</glyph>
<glyph name="uni2732" format="2">
  <advance width="1000"/>
  <unicode hex="2732"/>
  <outline>
    <contour>
      <point x="500" y="710" type="curve" smooth="yes"/>
      <point x="726" y="710"/>
      <point x="910" y="526"/>
      <point x="910" y="300" type="curve" smooth="yes"/>
      <point x="910" y="74"/>
      <point x="726" y="-110"/>
      <point x="500" y="-110" type="curve" smooth="yes"/>
      <point x="274" y="-110"/>
      <point x="90" y="74"/>
      <point x="90" y="300" type="curve" smooth="yes"/>
      <point x="90" y="526"/>
      <point x="274" y="710"/>
    </contour>
    <contour>
      <point x="500" y="650" type="curve" smooth="yes"/>
      <point x="306" y="650"/>
      <point x="150" y="494"/>
      <point x="150" y="300" type="curve" smooth="yes"/>
      <point x="150" y="106"/>
      <point x="306" y="-50"/>
      <point x="500" y="-50" type="curve" smooth="yes"/>
      <point x="694" y="-50"/>
      <point x="850" y="106"/>
      <point x="850" y="300" type="curve" smooth="yes"/>
      <point x="850" y="494"/>
      <point x="694" y="650"/>
    </contour>
    <contour>
      <point x="500" y="380" type="curve" smooth="yes"/>
      <point x="544" y="380"/>
      <point x="580" y="344"/>
      <point x="580" y="300" type="curve" smooth="yes"/>
      <point x="580" y="256"/>
      <point x="544" y="220"/>
      <point x="500" y="220" type="curve" smooth="yes"/>
      <point x="456" y="220"/>
      <point x="420" y="256"/>
      <point x="420" y="300" type="curve" smooth="yes"/>
      <point x="420" y="344"/>
      <point x="456" y="380"/>
    </contour>
  </outline>
</glyph>
<glyph name="uni2762" format="2">
  <advance width="1000"/>
  <unicode hex="2762"/>
  <outline>
    <contour>
      <point x="500" y="700" type="curve" smooth="yes"/>
      <point x="666" y="700"/>
      <point x="800" y="566"/>
      <point x="800" y="400" type="curve" smooth="yes"/>
      <point x="800" y="280"/>
      <point x="730" y="177"/>
      <point x="628" y="129" type="curve"/>
      <point x="642" y="106"/>
      <point x="650" y="79"/>
      <point x="650" y="50" type="curve" smooth="yes"/>
      <point x="650" y="-33"/>
      <point x="583" y="-100"/>
      <point x="500" y="-100" type="curve" smooth="yes"/>
      <point x="417" y="-100"/>
      <point x="350" y="-33"/>
      <point x="350" y="50" type="curve" smooth="yes"/>
      <point x="350" y="79"/>
      <point x="358" y="106"/>
      <point x="372" y="129" type="curve"/>
      <point x="270" y="177"/>
      <point x="200" y="280"/>
      <point x="200" y="400" type="curve" smooth="yes"/>
      <point x="200" y="566"/>
      <point x="334" y="700"/>
    </contour>
  </outline>
</glyph>
